<?xml version="1.0" encoding="UTF-8"?>
<svg id="Layer_2" data-name="Layer 2" xmlns="http://www.w3.org/2000/svg" viewBox="0 0 959.93 582.76">
  <defs>
    <style>
      .cls-1 {
        fill: #29abe2;
        stroke: #0071bc;
      }

      .cls-1, .cls-2, .cls-3, .cls-4, .cls-5, .cls-6, .cls-7, .cls-8, .cls-9, .cls-10, .cls-11, .cls-12, .cls-13, .cls-14 {
        stroke-miterlimit: 10;
      }

      .cls-1, .cls-4, .cls-15 {
        opacity: .9;
      }

      .cls-16 {
        font-size: 6px;
      }

      .cls-16, .cls-17, .cls-18, .cls-19, .cls-20, .cls-21 {
        fill: #333;
      }

      .cls-16, .cls-20, .cls-21 {
        font-family: Poppins-Light, Poppins;
        font-weight: 300;
      }

      .cls-22, .cls-23, .cls-15 {
        fill: #39b54a;
      }

      .cls-24 {
        fill: #f15a24;
      }

      .cls-24, .cls-17, .cls-23, .cls-20 {
        font-size: 10px;
      }

      .cls-24, .cls-17, .cls-23, .cls-25 {
        font-family: Poppins-Medium, Poppins;
        font-weight: 500;
      }

      .cls-2, .cls-3 {
        stroke: #39b54a;
      }

      .cls-2, .cls-3, .cls-6, .cls-7, .cls-8, .cls-9, .cls-10, .cls-11, .cls-12, .cls-13, .cls-14 {
        fill: none;
      }

      .cls-2, .cls-6, .cls-7, .cls-9, .cls-12 {
        stroke-width: 2px;
      }

      .cls-3, .cls-10, .cls-13 {
        stroke-width: 3px;
      }

      .cls-4 {
        fill: #fbae17;
      }

      .cls-4, .cls-13 {
        stroke: #f15a24;
      }

      .cls-5 {
        fill: #f2f2f2;
      }

      .cls-5, .cls-11 {
        stroke: #4d4d4d;
      }

      .cls-26 {
        fill: #fff;
      }

      .cls-6 {
        stroke-dasharray: 11.29 11.29;
      }

      .cls-6, .cls-12 {
        stroke: #fff;
      }

      .cls-27 {
        letter-spacing: .05em;
      }

      .cls-7 {
        stroke-dasharray: 5 5;
      }

      .cls-7, .cls-8, .cls-9, .cls-14 {
        stroke: #333;
      }

      .cls-8 {
        stroke-dasharray: 3;
      }

      .cls-10 {
        stroke: #666;
      }

      .cls-18 {
        font-family: Poppins-SemiBold, Poppins;
        font-size: 14px;
        font-weight: 600;
      }

      .cls-21, .cls-25 {
        font-size: 8px;
      }

      .cls-25 {
        fill: #006837;
      }
    </style>
  </defs>
  <g id="Layer_1-2" data-name="Layer 1">
    <g>
      <g>
        <rect class="cls-4" x="37.86" y="90.72" width="300" height="88.08"/>
        <rect class="cls-5" x="37.86" y="226.91" width="694.91" height="318.53"/>
        <rect class="cls-1" x="385.32" y="118.8" width="347.46" height="60"/>
        <rect class="cls-3" x="544.3" y="254.8" width="168.35" height="208.73"/>
        <text class="cls-17" transform="translate(135.14 142.25)"><tspan x="0" y="0">Frontend Application</tspan></text>
        <rect class="cls-13" x="60.77" y="254.8" width="196.24" height="77.43"/>
        <rect class="cls-10" x="127.01" y="382.1" width="130" height="80"/>
        <rect class="cls-10" x="321.71" y="382.1" width="130" height="80"/>
        <rect class="cls-10" x="321.71" y="254.8" width="130" height="80"/>
        <text class="cls-17" transform="translate(366.86 404.59)"><tspan x="0" y="0">Storage</tspan><tspan x="1.54" y="12">Service</tspan></text>
        <text class="cls-17" transform="translate(365.96 277.29)"><tspan x="0" y="0">Capture</tspan><tspan x="2.45" y="12">Service</tspan></text>
        <text class="cls-17" transform="translate(176.53 404.59)"><tspan x="0" y="0">Export</tspan><tspan x="-2.83" y="12">Service</tspan></text>
        <text class="cls-24" transform="translate(127.18 277.29)"><tspan x="0" y="0">API Gateway</tspan></text>
        <text class="cls-23" transform="translate(577.46 277.29)"><tspan x="0" y="0">Detector Framework</tspan></text>
        <text class="cls-20" transform="translate(342.12 308.61)"><tspan x="0" y="0">Frame processing</tspan></text>
        <text class="cls-20" transform="translate(154.04 435.91)"><tspan x="0" y="0">PDF Generation</tspan></text>
        <text class="cls-20" transform="translate(343.7 435.91)"><tspan x="0" y="0">File Management</tspan></text>
        <text class="cls-20" transform="translate(122.69 302.61)"><tspan x="0" y="0">FastAPI Thread</tspan><tspan x="12.85" y="12">Port 8000</tspan></text>
        <text class="cls-20" transform="translate(588.78 308.61)"><tspan x="0" y="0">Prcess Manager</tspan></text>
        <text class="cls-17" transform="translate(519.15 150.13)"><tspan x="0" y="0">Storage System</tspan></text>
        <text class="cls-20" transform="translate(155.49 161.9)"><tspan x="0" y="0">Tauri + React</tspan></text>
        <g>
          <text class="cls-18" transform="translate(324.7 502.31)"><tspan x="0" y="0">Backend Process</tspan></text>
          <text class="cls-20" transform="translate(322.87 520.88)"><tspan x="0" y="0">Single Python Application</tspan></text>
        </g>
        <g>
          <path class="cls-9" d="M184.71,241c-1.74-5.12-4.05-14.77-1.41-26.26,3.44-14.95,13.14-23.84,17.58-27.3"/>
          <polygon class="cls-19" points="186.69 236.12 184.57 240.42 180.27 238.3 181.2 241.03 185.5 243.15 187.62 238.84 186.69 236.12"/>
          <polygon class="cls-19" points="199.96 191.53 200.51 187.73 196.71 187.19 198.55 185.81 202.35 186.35 201.81 190.14 199.96 191.53"/>
        </g>
        <text class="cls-21" transform="translate(141.42 201.66)"><tspan x="0" y="0">REST API</tspan><tspan x="0" y="9.6">+</tspan><tspan class="cls-27" x="5.24" y="9.6">S</tspan><tspan x="10.22" y="9.6">SE</tspan></text>
        <g>
          <path class="cls-9" d="M476.53,292.75c4.34-8.91,8.59-19.21,12.14-30.86,8.45-27.71,9.76-52.56,9.03-70.97"/>
          <polygon class="cls-19" points="481.28 290.6 476.76 292.2 475.16 287.68 473.92 290.28 475.52 294.8 480.04 293.2 481.28 290.6"/>
          <polygon class="cls-19" points="500.49 194.03 497.7 191.4 495.07 194.2 495 191.9 497.63 189.1 500.42 191.73 500.49 194.03"/>
        </g>
        <g>
          <path class="cls-9" d="M476.3,420.45c9.33-26.08,18.52-59.07,23.49-97.85,6.78-52.91,3.35-98.32-1.87-131.69"/>
          <polygon class="cls-19" points="480.73 417.74 476.44 419.87 474.31 415.58 473.39 418.31 475.52 422.6 479.82 420.47 480.73 417.74"/>
          <polygon class="cls-19" points="501.03 193.67 497.96 191.38 495.67 194.46 495.33 192.18 497.63 189.1 500.7 191.39 501.03 193.67"/>
        </g>
        <g>
          <path class="cls-7" d="M168.89,375.5c-2.92-2.69-7.82-8.24-9.46-16.73-1.57-8.13.68-14.65,1.76-17.29"/>
          <polygon class="cls-19" points="168.14 370.31 168.46 375.09 163.67 375.41 165.84 377.3 170.63 376.99 170.31 372.2 168.14 370.31"/>
        </g>
        <g>
          <path class="cls-7" d="M312.9,319.56c-11.15,6.76-24.98,13.65-41.46,18.92-46.94,15.01-88.46,8.32-110.24,3"/>
          <polygon class="cls-19" points="307.72 318.61 312.36 319.82 311.15 324.46 313.63 323.01 314.85 318.37 310.21 317.15 307.72 318.61"/>
        </g>
        <g>
          <path class="cls-7" d="M375.18,371.14c-.26-5.93-2.11-9.63-3.86-11.97-16.58-22.08-73.38,11.94-142.09,4.02-29.25-3.37-52.51-13.4-68.03-21.71"/>
          <polygon class="cls-19" points="378.51 367.11 375.16 370.55 371.73 367.2 371.76 370.08 375.2 373.42 378.55 369.99 378.51 367.11"/>
        </g>
        <g>
          <path class="cls-9" d="M790.6,156.82c-5.53-1.43-12.51-4.23-18.11-10.2-7.59-8.08-7.3-16.28-12.61-17.97-3.71-1.18-10.19.81-22.21,16.21"/>
          <polygon class="cls-19" points="788.24 153.32 790.15 156.65 786.82 158.55 789.05 159.16 792.37 157.25 790.47 153.92 788.24 153.32"/>
        </g>
        <g>
          <path class="cls-9" d="M790.75,437.75c-10.77-5.68-23.96-15.08-30.6-30.44-11.43-26.41,6.82-46.59,7.15-89.91.16-21.24-4.16-24.75-13.5-67.5-5.34-24.44-11.98-60.14-16.12-105.02"/>
          <polygon class="cls-19" points="789.23 433.83 790.35 437.5 786.67 438.61 788.7 439.7 792.37 438.59 791.26 434.92 789.23 433.83"/>
        </g>
        <g>
          <path class="cls-9" d="M790.98,295.37c-5.43-4.71-12.17-11.93-16.54-22.18-10.9-25.54,3.43-45.13.26-71.17-1.81-14.85-9.69-34.97-37.04-57.15"/>
          <polygon class="cls-19" points="790.45 291.18 790.66 295.01 786.83 295.22 788.54 296.75 792.37 296.55 792.17 292.72 790.45 291.18"/>
        </g>
        <text class="cls-21" transform="translate(756.22 99.11)"><tspan x="0" y="0">Read-</tspan><tspan x="0" y="9.6">only</tspan></text>
        <g>
          <path class="cls-7" d="M526.1,357.26c-66.37-5.43-118.99-2.12-154.78,1.9-47.63,5.35-87.17,14.41-142.09,4.02-29.79-5.63-53.21-14.93-68.03-21.71"/>
          <polygon class="cls-19" points="522.36 353.63 525.5 357.25 521.88 360.4 524.76 360.6 528.37 357.45 525.23 353.83 522.36 353.63"/>
        </g>
        <text class="cls-21" transform="translate(86.38 354.78)"><tspan x="0" y="0">Direct Method</tspan><tspan x="36.14" y="9.6">Calls</tspan></text>
        <rect class="cls-22" x="598.48" y="341.48" width="60" height="60" rx="30" ry="30"/>
        <g>
          <rect class="cls-15" x="799.6" y="118.8" width="122.47" height="100"/>
          <rect class="cls-15" x="799.6" y="258.97" width="122.47" height="100"/>
          <rect class="cls-15" x="799.6" y="399.15" width="122.47" height="100"/>
          <g>
            <polyline class="cls-12" points="804.01 269.44 804.01 263.44 810.01 263.44"/>
            <line class="cls-6" x1="821.3" y1="263.44" x2="906.01" y2="263.44"/>
            <polyline class="cls-12" points="911.65 263.44 917.65 263.44 917.65 269.44"/>
            <line class="cls-6" x1="917.65" y1="280.74" x2="917.65" y2="342.86"/>
            <polyline class="cls-12" points="917.65 348.5 917.65 354.5 911.65 354.5"/>
            <line class="cls-6" x1="900.36" y1="354.5" x2="815.65" y2="354.5"/>
            <polyline class="cls-12" points="810.01 354.5 804.01 354.5 804.01 348.5"/>
            <line class="cls-6" x1="804.01" y1="337.21" x2="804.01" y2="275.09"/>
          </g>
          <g>
            <polyline class="cls-12" points="804.01 129.27 804.01 123.27 810.01 123.27"/>
            <line class="cls-6" x1="821.3" y1="123.27" x2="906.01" y2="123.27"/>
            <polyline class="cls-12" points="911.65 123.27 917.65 123.27 917.65 129.27"/>
            <line class="cls-6" x1="917.65" y1="140.56" x2="917.65" y2="202.68"/>
            <polyline class="cls-12" points="917.65 208.33 917.65 214.33 911.65 214.33"/>
            <line class="cls-6" x1="900.36" y1="214.33" x2="815.65" y2="214.33"/>
            <polyline class="cls-12" points="810.01 214.33 804.01 214.33 804.01 208.33"/>
            <line class="cls-6" x1="804.01" y1="197.03" x2="804.01" y2="134.92"/>
          </g>
          <g>
            <polyline class="cls-12" points="804.01 409.62 804.01 403.62 810.01 403.62"/>
            <line class="cls-6" x1="821.3" y1="403.62" x2="906.01" y2="403.62"/>
            <polyline class="cls-12" points="911.65 403.62 917.65 403.62 917.65 409.62"/>
            <line class="cls-6" x1="917.65" y1="420.91" x2="917.65" y2="483.03"/>
            <polyline class="cls-12" points="917.65 488.68 917.65 494.68 911.65 494.68"/>
            <line class="cls-6" x1="900.36" y1="494.68" x2="815.65" y2="494.68"/>
            <polyline class="cls-12" points="810.01 494.68 804.01 494.68 804.01 488.68"/>
            <line class="cls-6" x1="804.01" y1="477.38" x2="804.01" y2="415.27"/>
          </g>
          <text class="cls-17" transform="translate(825.14 142.28)"><tspan x="0" y="0">ClockDetector</tspan></text>
          <text class="cls-17" transform="translate(813.68 282.46)"><tspan x="0" y="0">DifferenceDetector</tspan></text>
          <text class="cls-17" transform="translate(828.85 422.63)"><tspan x="0" y="0">TestDetector</tspan></text>
          <text class="cls-20" transform="translate(832.9 162.3)"><tspan x="0" y="0">PaddleOCR</tspan><tspan x="9.47" y="12">YOLOv11</tspan><tspan x="4.85" y="24">ResNet50</tspan></text>
          <text class="cls-20" transform="translate(845.57 302.47)"><tspan x="0" y="0">COAM</tspan><tspan x="-12.16" y="12">Detectron2</tspan></text>
          <text class="cls-20" transform="translate(837.23 442.65)"><tspan x="0" y="0">Template</tspan><tspan x="2.67" y="12">Example</tspan></text>
          <text class="cls-25" transform="translate(828 204.14)"><tspan x="0" y="0">Isolated Process</tspan></text>
          <text class="cls-25" transform="translate(828 344.32)"><tspan x="0" y="0">Isolated Process</tspan></text>
          <text class="cls-25" transform="translate(828 484.49)"><tspan x="0" y="0">Isolated Process</tspan></text>
        </g>
        <text class="cls-21" transform="translate(513.42 202.02)"><tspan x="0" y="0">Read/</tspan><tspan x="0" y="9.6">Write</tspan></text>
        <g>
          <g>
            <path class="cls-8" d="M593.93,518.82c-5.51,0-11.02,0-16.53,0"/>
            <text class="cls-16" transform="translate(598.83 520.94)"><tspan x="0" y="0">Direct calls</tspan></text>
          </g>
          <g>
            <path class="cls-14" d="M659.16,518.82c-5.51,0-11.02,0-16.53,0"/>
            <text class="cls-16" transform="translate(664.05 520.94)"><tspan x="0" y="0">Communication</tspan></text>
          </g>
        </g>
        <g>
          <path class="cls-2" d="M792.49,176.55c-7.85-1.14-19.23-1.42-29.43,4.52-31.83,18.55-6.08,70.92-42.35,115.15-14.02,17.09-26.56,19.86-53.18,52.61-8.63,10.61-15.07,19.86-19.19,26.07"/>
          <polygon class="cls-22" points="789.73 173.42 792.02 176.5 788.94 178.79 791.21 179.12 794.29 176.84 792.01 173.76 789.73 173.42"/>
        </g>
        <g>
          <path class="cls-2" d="M790.55,456.2c-9.76.41-23.29-.48-37.02-7.01-24.39-11.59-28.9-31.18-52.15-50.04-10.53-8.54-27.17-18.78-53.05-24.25"/>
          <polygon class="cls-22" points="787.25 453.6 790.08 456.2 787.47 459.02 789.78 458.92 792.37 456.1 789.55 453.5 787.25 453.6"/>
        </g>
        <g>
          <path class="cls-2" d="M790.55,315.65c-14.34.95-34.24,4.55-52.88,17.37-11.45,7.87-14.8,13.97-25.01,21.7-11.91,9-31.53,19-64.32,20.18"/>
          <polygon class="cls-22" points="787.17 313.21 790.08 315.71 787.57 318.62 789.87 318.45 792.37 315.54 789.47 313.04 787.17 313.21"/>
        </g>
        <text class="cls-21" transform="translate(598.37 418.56)"><tspan x="0" y="0">File-based IPC/</tspan><tspan x="-17.26" y="9.6">Multiprocessing Queues</tspan></text>
        <g>
          <g>
            <path class="cls-26" d="M91.26,127.75c-.02,1.76-1.46,3.17-3.21,3.16-1.74-.02-3.14-1.42-3.16-3.16,0-1.76,1.43-3.19,3.19-3.19,1.76,0,3.19,1.43,3.19,3.19Z"/>
            <path class="cls-26" d="M79.53,136.87c0-1.76,1.43-3.19,3.19-3.19s3.19,1.43,3.19,3.19-1.43,3.19-3.19,3.19-3.19-1.43-3.19-3.19h0Z"/>
            <path class="cls-26" d="M94.68,137.96c-1.28.83-2.7,1.41-4.2,1.71.31-.9.47-1.85.47-2.8,0-.35-.02-.7-.06-1.05.64-.22,1.26-.52,1.83-.89,1.38-.89,2.48-2.17,3.15-3.67,1.94-4.3.02-9.37-4.28-11.3-.39-.18-.79-.32-1.21-.44-3.24-.9-6.71.17-8.86,2.75-.14.16-.26.33-.39.5-1.62.18-3.2.64-4.66,1.35,1.19-3.82,4.18-6.8,8-7.99,2.24-.7,4.63-.73,6.88-.1,2.26.63,4.28,1.9,5.83,3.65,1.55,1.75,2.56,3.92,2.92,6.24.72,4.73-1.41,9.44-5.42,12.04ZM76.61,126.34l2.98.37c.07-.58.2-1.14.38-1.69-1.18.27-2.32.72-3.37,1.32h0Z"/>
            <path class="cls-26" d="M76.09,126.65c1.29-.83,2.72-1.42,4.23-1.71-.35.95-.53,1.94-.52,2.95,0,.31.02.61.05.92-.63.22-1.23.52-1.79.88-1.38.89-2.48,2.17-3.15,3.67-.68,1.5-.9,3.17-.66,4.79s.96,3.15,2.05,4.38,2.51,2.12,4.1,2.57,3.27.42,4.84-.07c1.57-.49,2.97-1.42,4.03-2.68.14-.16.26-.33.39-.5,1.62-.18,3.2-.64,4.67-1.36-.48,1.53-1.25,2.95-2.28,4.18-1.5,1.8-3.49,3.12-5.73,3.82-2.24.7-4.63.73-6.88.1-2.26-.63-4.28-1.9-5.83-3.65-1.55-1.75-2.56-3.92-2.92-6.24-.35-2.32-.03-4.68.94-6.82.96-2.14,2.52-3.95,4.49-5.22ZM94.15,138.28s-.03.02-.05.03c.02,0,.03-.02.05-.03Z"/>
          </g>
          <g>
            <path class="cls-26" d="M305.19,132.31c0-2.24-2.81-4.37-7.12-5.69.99-4.39.55-7.88-1.39-9-.45-.26-.97-.39-1.55-.39v1.54c.32,0,.57.06.79.18.94.54,1.35,2.59,1.03,5.22-.08.65-.2,1.33-.35,2.03-1.35-.33-2.83-.59-4.38-.75-.93-1.28-1.9-2.44-2.87-3.45,2.25-2.09,4.36-3.24,5.8-3.24v-1.54c-1.9,0-4.38,1.35-6.89,3.7-2.51-2.33-5-3.67-6.89-3.67v1.54c1.43,0,3.55,1.14,5.8,3.22-.97,1.01-1.93,2.17-2.85,3.44-1.56.17-3.04.42-4.39.76-.16-.69-.28-1.36-.36-2-.32-2.64.08-4.69,1.01-5.23.21-.12.48-.18.79-.18v-1.54c-.58,0-1.1.12-1.56.39-1.94,1.12-2.37,4.6-1.37,8.98-4.29,1.33-7.09,3.44-7.09,5.68s2.81,4.37,7.12,5.69c-.99,4.39-.55,7.88,1.39,9,.45.26.97.39,1.55.39,1.9,0,4.38-1.35,6.89-3.7,2.51,2.33,5,3.67,6.89,3.67.58,0,1.1-.12,1.56-.39,1.94-1.12,2.37-4.6,1.37-8.98,4.28-1.32,7.07-3.44,7.07-5.68h0ZM296.2,127.71c-.26.89-.57,1.81-.93,2.73-.28-.55-.58-1.1-.9-1.66-.32-.55-.66-1.09-.99-1.61.98.14,1.93.32,2.83.55h0ZM293.04,135.06c-.54.93-1.09,1.82-1.66,2.64-1.03.09-2.07.14-3.12.14s-2.08-.05-3.11-.13c-.57-.82-1.13-1.7-1.67-2.62-.52-.9-1-1.82-1.44-2.75.43-.92.91-1.85,1.43-2.75.54-.93,1.09-1.82,1.66-2.64,1.03-.09,2.07-.14,3.12-.14s2.08.05,3.11.13c.57.82,1.13,1.7,1.67,2.62.52.9,1,1.82,1.44,2.75-.43.92-.91,1.85-1.43,2.75h0ZM295.27,134.16c.37.92.69,1.85.95,2.75-.9.22-1.86.41-2.84.55.34-.53.68-1.08.99-1.64.32-.55.61-1.11.9-1.66h0ZM288.27,141.53c-.64-.66-1.28-1.4-1.92-2.21.62.03,1.26.05,1.9.05s1.29-.01,1.92-.05c-.62.81-1.26,1.55-1.9,2.21ZM283.14,137.46c-.98-.14-1.93-.32-2.83-.55.26-.89.57-1.81.93-2.73.28.55.58,1.1.9,1.66s.66,1.09.99,1.61ZM288.24,123.1c.64.66,1.28,1.4,1.92,2.21-.62-.03-1.26-.05-1.9-.05s-1.29.01-1.92.05c.62-.81,1.26-1.55,1.9-2.21ZM283.13,127.16c-.34.53-.68,1.08-.99,1.64-.32.55-.61,1.1-.9,1.66-.37-.92-.69-1.85-.95-2.75.9-.21,1.86-.4,2.84-.55h0ZM276.89,135.8c-2.44-1.04-4.02-2.41-4.02-3.49s1.58-2.46,4.02-3.49c.59-.26,1.24-.48,1.91-.7.39,1.35.91,2.76,1.55,4.2-.63,1.44-1.15,2.84-1.53,4.18-.68-.21-1.33-.45-1.93-.7h0ZM280.6,145.67c-.94-.54-1.35-2.59-1.03-5.22.08-.65.2-1.33.35-2.03,1.35.33,2.83.59,4.38.75.93,1.28,1.9,2.44,2.87,3.45-2.25,2.09-4.36,3.24-5.8,3.24-.31,0-.57-.07-.78-.19h0ZM296.97,140.41c.32,2.64-.08,4.69-1.01,5.23-.21.12-.48.18-.79.18-1.43,0-3.55-1.14-5.8-3.22.97-1.01,1.93-2.17,2.85-3.44,1.56-.17,3.04-.42,4.39-.76.16.7.28,1.37.36,2.01ZM299.63,135.8c-.59.26-1.24.48-1.91.7-.39-1.35-.91-2.76-1.55-4.2.63-1.44,1.15-2.84,1.53-4.18.68.21,1.33.45,1.94.7,2.44,1.04,4.02,2.41,4.02,3.49,0,1.08-1.59,2.46-4.03,3.49h0Z"/>
            <circle class="cls-26" cx="288.25" cy="132.31" r="3.15"/>
          </g>
        </g>
        <path class="cls-26" d="M450.2,137.31h-15.79c-1.06,0-1.92.87-1.92,1.92v17.41c0,1.06.87,1.92,1.92,1.92h10.4c-.12-5.18,1.65-15.22,5.39-21.27v.02Z"/>
        <path class="cls-26" d="M449.63,137.87h-15.21c-.75,0-1.36.61-1.36,1.36v16.14c3.45-1.32,8.62-2.46,12.2-2.41,1.1-5.13,2.57-10.17,4.38-15.1h0Z"/>
        <path class="cls-26" d="M453.89,136.74c-1.08-.96-2.39-.58-3.69.57l-.58.56c-2.21,2.34-4.22,6.69-4.9,10.01.24.53.43,1.07.57,1.64l.08.38.08.39s-.02-.08-.1-.31l-.05-.15s-.02-.06-.03-.08c-.15-.33-.54-1.04-.72-1.35-.14.41-.27.82-.4,1.23.51.93.81,2.52.81,2.52,0,0-.03-.1-.15-.46-.12-.32-.68-1.31-.81-1.54-.23.84-.32,1.41-.24,1.55.15.27.31.77.44,1.24.21.84.38,1.7.51,2.56l.02.24c-.04.96-.02,1.92.06,2.88.1,1.2.29,2.23.53,2.79l.16-.09c-.35-1.09-.49-2.51-.43-4.16.1-2.51.67-5.55,1.74-8.71,1.82-4.81,4.32-8.64,6.61-10.47-2.09,1.89-4.92,8-5.77,10.26-.95,2.53-1.62,4.91-2.03,7.19.7-2.13,2.96-3.06,2.96-3.06,0,0,1.11-1.37,2.4-3.32l-2.48.66-.8.35s2.03-1.24,3.79-1.8c2.41-3.79,5.03-9.18,2.39-11.53"/>
        <path class="cls-26" d="M642.87,368.91c-.08-.07-.82-.62-2.39-.62-.41,0-.83.03-1.24.11-.3-2.08-2.02-3.1-2.1-3.14l-.42-.25-.28.4c-.35.54-.6,1.13-.75,1.75-.28,1.19-.11,2.3.49,3.25-.73.4-1.9.51-2.13.51h-19.35c-.51,0-.92.41-.92.92-.02,1.69.27,3.38.84,4.97.67,1.75,1.66,3.03,2.95,3.82,1.44.89,3.79,1.39,6.46,1.39,1.2,0,2.4-.11,3.59-.33,1.64-.3,3.22-.87,4.68-1.7,1.2-.7,2.28-1.58,3.19-2.61,1.53-1.73,2.45-3.67,3.13-5.38h.27c1.68,0,2.71-.67,3.28-1.23.38-.36.68-.79.86-1.28l.12-.35-.29-.22ZM616.5,370.36h2.59c.12,0,.23-.1.23-.23v-2.31c0-.12-.1-.23-.23-.23h-2.59c-.12,0-.23.1-.23.23v2.31c0,.13.1.23.23.23M620.08,370.36h2.59c.12,0,.23-.1.23-.23v-2.31c0-.12-.1-.23-.23-.23h-2.59c-.13,0-.23.1-.23.23v2.31c0,.13.1.23.23.23M623.7,370.37h2.59c.12,0,.23-.1.23-.23v-2.31c0-.12-.1-.23-.23-.23h-2.59c-.12,0-.23.1-.23.23v2.31c0,.12.1.22.23.23M627.29,370.37h2.59c.12,0,.23-.1.23-.23v-2.31c0-.13-.1-.23-.23-.23h-2.59c-.12,0-.23.1-.23.23v2.31c0,.12.1.23.23.23M620.07,367.04h2.59c.12,0,.23-.1.23-.23v-2.31c0-.12-.1-.23-.23-.23h-2.59c-.13,0-.23.1-.23.23v2.31c0,.13.11.23.23.23M623.7,367.04h2.59c.12,0,.23-.1.23-.23v-2.31c0-.12-.1-.23-.23-.23h-2.59c-.12,0-.23.1-.23.23v2.31c0,.13.1.23.23.23M627.29,367.04h2.59c.13,0,.23-.1.23-.23v-2.31c0-.13-.1-.23-.23-.23h-2.59c-.12,0-.23.1-.23.23v2.31c0,.13.1.23.23.23M627.29,363.72h2.59c.13,0,.23-.1.23-.23v-2.31c0-.12-.1-.23-.23-.23h-2.59c-.12,0-.23.1-.23.23v2.31c0,.13.1.23.23.23M630.9,370.37h2.59c.12,0,.23-.1.23-.23v-2.31c0-.13-.1-.23-.23-.23h-2.59c-.12,0-.23.1-.23.23v2.31c0,.12.1.23.23.23"/>
      </g>
      <rect class="cls-11" x=".5" y="53.9" width="958.93" height="528.35"/>
      <g>
        <text class="cls-18" transform="translate(381.11 11.91)"><tspan x="0" y="0">CAM-F System Architecture</tspan></text>
        <text class="cls-20" transform="translate(341.47 30.48)"><tspan x="0" y="0">Modular Monolith with Process-Isolated Detector Plugins</tspan></text>
      </g>
    </g>
  </g>
</svg>