<?xml version="1.0" encoding="UTF-8"?>
<svg id="Layer_1" data-name="Layer 1" xmlns="http://www.w3.org/2000/svg" viewBox="0 0 639.88 352.9">
  <defs>
    <style>
      .cls-1 {
        stroke: #000;
        stroke-miterlimit: 10;
        stroke-width: 10px;
      }
    </style>
  </defs>
  <path class="cls-1" d="M594.09,11.72v.03c-42.96-.18-84.61,16.6-116.75,48.74l-91.87,91.87-91.87-91.87C245.91,12.8,177.28-1.14,114.49,24.12,52.47,49.08,13.1,105.91,11.75,172.43c-.03,1.34-.04,2.69-.04,4.03s.01,2.69.04,4.03c1.35,66.52,40.72,123.35,102.75,148.3,20.71,8.33,42.04,12.4,63.06,12.4,42.71,0,84.08-16.8,116.05-48.77l91.87-91.87,91.87,91.87c31.97,31.97,73.34,48.77,116.05,48.77.23,0,.47,0,.7,0h0s34.08,0,34.08,0V11.72h-34.08ZM269.51,268.32c-37.87,37.87-92.39,48.93-142.29,28.85-49.14-19.77-80.33-64.75-81.39-117.38-.02-1.11-.03-2.22-.03-3.34s.01-2.23.03-3.34c1.07-52.63,32.25-97.6,81.39-117.38,16.47-6.63,33.43-9.86,50.14-9.86,33.92,0,66.77,13.34,92.15,38.71l91.87,91.87-91.87,91.87ZM594.09,307.01c-34.1.13-67.15-13.19-92.65-38.69l-91.87-91.87,91.87-91.87c25.5-25.5,58.55-38.82,92.65-38.69v261.11Z"/>
  <path class="cls-1" d="M177.54,347.9c-22.25,0-44.31-4.34-65.55-12.89C47.43,309.04,6.45,249.88,5.04,180.62c-.03-1.38-.04-2.77-.04-4.17s.01-2.78.04-4.17C6.45,103.04,47.43,43.88,111.99,17.9c65.33-26.29,136.73-11.78,186.36,37.85l87.12,87.12,87.12-87.12c31.26-31.26,71.8-49.08,114.78-50.6v-.1l6.71-.03h40.79v342.88h-41.49c-45.18,0-88.08-18.01-120.79-50.72l-87.12-87.12-87.12,87.12c-32.72,32.71-75.61,50.73-120.79,50.73h-.01ZM177.52,18.45c-20.17,0-40.65,3.9-60.52,11.9C57.51,54.28,19.75,108.78,18.46,172.56c-.03,1.3-.04,2.6-.04,3.9s.01,2.6.04,3.9c1.29,63.79,39.05,118.28,98.54,142.22,19.65,7.91,40.02,11.92,60.54,11.92h.01c41.6,0,81.13-16.62,111.31-46.8l96.61-96.61,96.61,96.61c30.18,30.18,69.71,46.8,111.31,46.8h.7s27.37,0,27.37,0V18.43l-27.4.03c-.22,0-.45,0-.67,0-41.62,0-81.13,16.6-111.31,46.78l-96.61,96.61-96.61-96.61c-30.67-30.67-70.36-46.79-111.35-46.79ZM177.4,313.76c-17.56,0-35.39-3.4-52.69-10.36-51.67-20.8-84.47-68.1-85.59-123.47-.02-1.16-.04-2.31-.04-3.47s.01-2.32.04-3.48c1.12-55.36,33.92-102.67,85.59-123.46,17.06-6.86,34.77-10.35,52.65-10.35,36.25,0,70.66,14.45,96.89,40.68l96.61,96.61-96.61,96.61c-26.67,26.67-61.2,40.69-96.85,40.69ZM177.36,52.59c-16.15,0-32.18,3.15-47.64,9.38-46.6,18.75-76.18,61.39-77.19,111.29-.02,1.07-.03,2.13-.03,3.2s.01,2.14.03,3.2c1.01,49.89,30.59,92.54,77.19,111.29,47.36,19.06,99.1,8.57,135.04-27.37l87.12-87.12-87.12-87.12c-23.7-23.7-54.74-36.75-87.4-36.75ZM593.59,313.72c-36.27,0-70.66-14.43-96.89-40.66l-96.61-96.61,96.61-96.61c26.23-26.23,60.62-40.65,96.89-40.65.18,0,.35,0,.53,0l6.68.03v274.47l-6.68.03c-.17,0-.35,0-.53,0ZM419.06,176.46l87.12,87.12c22.19,22.19,50.81,35.03,81.2,36.57V52.77c-30.39,1.54-59.01,14.38-81.2,36.57l-87.12,87.12Z"/>
</svg>